<svg width="27" height="27" viewBox="0 0 27 27" fill="none" xmlns="http://www.w3.org/2000/svg">
<path fill-rule="evenodd" clip-rule="evenodd" d="M6.66667 0C2.98477 0 0 2.98477 0 6.66667V20C0 23.6819 2.98477 26.6667 6.66667 26.6667H20C23.6819 26.6667 26.6667 23.6819 26.6667 20V6.66667C26.6667 2.98477 23.6819 0 20 0H6.66667ZM20 3.33333H6.66667C4.82572 3.33333 3.33333 4.82572 3.33333 6.66667V20C3.33333 21.8409 4.82572 23.3333 6.66667 23.3333H20C21.8409 23.3333 23.3333 21.8409 23.3333 20V6.66667C23.3333 4.82572 21.8409 3.33333 20 3.33333ZM18.1679 20.2481C18.8572 20.7076 19.7885 20.5214 20.248 19.8321C20.7076 19.1428 20.5213 18.2115 19.832 17.7519C19.7153 17.6741 19.5793 17.57 19.4213 17.449C18.5128 16.7531 16.877 15.5 14 15.5H13C10.123 15.5 8.4871 16.7531 7.5786 17.449L7.57852 17.449C7.42056 17.57 7.28459 17.6742 7.16791 17.7519C6.47862 18.2115 6.29236 19.1428 6.75189 19.8321C7.21142 20.5214 8.14272 20.7076 8.83201 20.2481C9.06661 20.0917 9.28296 19.9304 9.49552 19.7719L9.49556 19.7718L9.4956 19.7718C10.3814 19.1113 11.2012 18.5 13 18.5H14C15.7987 18.5 16.6185 19.1113 17.5043 19.7718L17.5044 19.7718L17.5044 19.7719C17.717 19.9304 17.9333 20.0917 18.1679 20.2481Z" fill="white"/>
<path fill-rule="evenodd" clip-rule="evenodd" d="M20.5 7C21.3284 7 22 7.67157 22 8.5V9.5C22 11.433 20.433 13 18.5 13C16.567 13 15 11.433 15 9.5V8.5C15 7.67157 15.6716 7 16.5 7C17.3284 7 18 7.67157 18 8.5V9.5C18 9.77614 18.2239 10 18.5 10C18.7761 10 19 9.77614 19 9.5V8.5C19 7.67157 19.6716 7 20.5 7Z" fill="white"/>
<path fill-rule="evenodd" clip-rule="evenodd" d="M11 7C11.8284 7 12.5 7.67157 12.5 8.5V9.5C12.5 11.433 10.933 13 9 13C7.067 13 5.5 11.433 5.5 9.5V8.5C5.5 7.67157 6.17157 7 7 7C7.82843 7 8.5 7.67157 8.5 8.5V9.5C8.5 9.77614 8.72386 10 9 10C9.27614 10 9.5 9.77614 9.5 9.5V8.5C9.5 7.67157 10.1716 7 11 7Z" fill="white"/>
</svg>
